<svg xmlns="http://www.w3.org/2000/svg" version="1.1" xmlns:xlink="http://www.w3.org/1999/xlink"  width="1440" height="560" preserveAspectRatio="none" viewBox="0 0 1440 560"><g mask="url(&quot;#SvgjsMask1098&quot;)" fill="none"><rect width="1440" height="560" x="0" y="0" fill="#0e2a47"></rect><path d="M4.54 -7.62L69.49 29.88L69.49 104.88L4.54 142.38L-60.41 104.88L-60.41 29.88zM199.4 104.88L264.36 142.38L264.36 217.38L199.4 254.88L134.45 217.38L134.45 142.38zM199.4 554.88L264.36 592.38L264.36 667.38L199.4 704.88L134.45 667.38L134.45 592.38zM329.31 329.88L394.26 367.38L394.26 442.38L329.31 479.88L264.36 442.38L264.36 367.38zM264.36 442.38L329.31 479.88L329.31 554.88L264.36 592.38L199.4 554.88L199.4 479.88zM459.22 104.88L524.17 142.38L524.17 217.38L459.22 254.88L394.26 217.38L394.26 142.38zM459.22 329.88L524.17 367.38L524.17 442.38L459.22 479.88L394.26 442.38L394.26 367.38zM459.22 554.88L524.17 592.38L524.17 667.38L459.22 704.88L394.26 667.38L394.26 592.38zM524.17 217.38L589.12 254.88L589.12 329.88L524.17 367.38L459.22 329.88L459.22 254.88zM589.12 329.88L654.08 367.38L654.08 442.38L589.12 479.88L524.17 442.38L524.17 367.38zM524.17 442.38L589.12 479.88L589.12 554.88L524.17 592.38L459.22 554.88L459.22 479.88zM589.12 554.88L654.08 592.38L654.08 667.38L589.12 704.88L524.17 667.38L524.17 592.38zM654.08 -7.62L719.03 29.88L719.03 104.88L654.08 142.38L589.12 104.88L589.12 29.88zM719.03 104.88L783.99 142.38L783.99 217.38L719.03 254.88L654.08 217.38L654.08 142.38zM719.03 554.88L783.99 592.38L783.99 667.38L719.03 704.88L654.08 667.38L654.08 592.38zM783.98 -7.62L848.94 29.88L848.94 104.88L783.98 142.38L719.03 104.88L719.03 29.88zM848.94 104.88L913.89 142.38L913.89 217.38L848.94 254.88L783.98 217.38L783.98 142.38zM848.94 329.88L913.89 367.38L913.89 442.38L848.94 479.88L783.98 442.38L783.98 367.38zM783.98 442.38L848.94 479.88L848.94 554.88L783.98 592.38L719.03 554.88L719.03 479.88zM848.94 554.88L913.89 592.38L913.89 667.38L848.94 704.88L783.98 667.38L783.98 592.38zM978.85 104.88L1043.8 142.38L1043.8 217.38L978.85 254.88L913.89 217.38L913.89 142.38zM978.85 329.88L1043.8 367.38L1043.8 442.38L978.85 479.88L913.89 442.38L913.89 367.38zM978.85 554.88L1043.8 592.38L1043.8 667.38L978.85 704.88L913.89 667.38L913.89 592.38zM1108.75 554.88L1173.71 592.38L1173.71 667.38L1108.75 704.88L1043.8 667.38L1043.8 592.38zM1173.71 -7.62L1238.66 29.88L1238.66 104.88L1173.71 142.38L1108.75 104.88L1108.75 29.88zM1173.71 217.38L1238.66 254.88L1238.66 329.88L1173.71 367.38L1108.75 329.88L1108.75 254.88zM1238.66 329.88L1303.61 367.38L1303.61 442.38L1238.66 479.88L1173.71 442.38L1173.71 367.38zM1173.71 442.38L1238.66 479.88L1238.66 554.88L1173.71 592.38L1108.75 554.88L1108.75 479.88zM1368.57 104.88L1433.52 142.38L1433.52 217.38L1368.57 254.88L1303.62 217.38L1303.62 142.38zM1303.62 217.38L1368.57 254.88L1368.57 329.88L1303.62 367.38L1238.66 329.88L1238.66 254.88zM1368.57 329.88L1433.52 367.38L1433.52 442.38L1368.57 479.88L1303.62 442.38L1303.62 367.38zM1303.62 442.38L1368.57 479.88L1368.57 554.88L1303.62 592.38L1238.66 554.88L1238.66 479.88zM1498.48 104.88L1563.43 142.38L1563.43 217.38L1498.48 254.88L1433.52 217.38L1433.52 142.38zM1433.52 442.38L1498.48 479.88L1498.48 554.88L1433.52 592.38L1368.57 554.88L1368.57 479.88z" stroke="#03305d" stroke-width="2"></path><path d="M-2.96 -7.62 a7.5 7.5 0 1 0 15 0 a7.5 7.5 0 1 0 -15 0zM61.99 29.88 a7.5 7.5 0 1 0 15 0 a7.5 7.5 0 1 0 -15 0zM61.99 104.88 a7.5 7.5 0 1 0 15 0 a7.5 7.5 0 1 0 -15 0zM-2.96 142.38 a7.5 7.5 0 1 0 15 0 a7.5 7.5 0 1 0 -15 0zM-67.91 104.88 a7.5 7.5 0 1 0 15 0 a7.5 7.5 0 1 0 -15 0zM-67.91 29.88 a7.5 7.5 0 1 0 15 0 a7.5 7.5 0 1 0 -15 0zM191.9 104.88 a7.5 7.5 0 1 0 15 0 a7.5 7.5 0 1 0 -15 0zM256.86 142.38 a7.5 7.5 0 1 0 15 0 a7.5 7.5 0 1 0 -15 0zM256.86 217.38 a7.5 7.5 0 1 0 15 0 a7.5 7.5 0 1 0 -15 0zM191.9 254.88 a7.5 7.5 0 1 0 15 0 a7.5 7.5 0 1 0 -15 0zM126.95 217.38 a7.5 7.5 0 1 0 15 0 a7.5 7.5 0 1 0 -15 0zM126.95 142.38 a7.5 7.5 0 1 0 15 0 a7.5 7.5 0 1 0 -15 0zM191.9 554.88 a7.5 7.5 0 1 0 15 0 a7.5 7.5 0 1 0 -15 0zM256.86 592.38 a7.5 7.5 0 1 0 15 0 a7.5 7.5 0 1 0 -15 0zM256.86 667.38 a7.5 7.5 0 1 0 15 0 a7.5 7.5 0 1 0 -15 0zM191.9 704.88 a7.5 7.5 0 1 0 15 0 a7.5 7.5 0 1 0 -15 0zM126.95 667.38 a7.5 7.5 0 1 0 15 0 a7.5 7.5 0 1 0 -15 0zM126.95 592.38 a7.5 7.5 0 1 0 15 0 a7.5 7.5 0 1 0 -15 0zM321.81 329.88 a7.5 7.5 0 1 0 15 0 a7.5 7.5 0 1 0 -15 0zM386.76 367.38 a7.5 7.5 0 1 0 15 0 a7.5 7.5 0 1 0 -15 0zM386.76 442.38 a7.5 7.5 0 1 0 15 0 a7.5 7.5 0 1 0 -15 0zM321.81 479.88 a7.5 7.5 0 1 0 15 0 a7.5 7.5 0 1 0 -15 0zM256.86 442.38 a7.5 7.5 0 1 0 15 0 a7.5 7.5 0 1 0 -15 0zM256.86 367.38 a7.5 7.5 0 1 0 15 0 a7.5 7.5 0 1 0 -15 0zM321.81 554.88 a7.5 7.5 0 1 0 15 0 a7.5 7.5 0 1 0 -15 0zM191.9 479.88 a7.5 7.5 0 1 0 15 0 a7.5 7.5 0 1 0 -15 0zM451.72 104.88 a7.5 7.5 0 1 0 15 0 a7.5 7.5 0 1 0 -15 0zM516.67 142.38 a7.5 7.5 0 1 0 15 0 a7.5 7.5 0 1 0 -15 0zM516.67 217.38 a7.5 7.5 0 1 0 15 0 a7.5 7.5 0 1 0 -15 0zM451.72 254.88 a7.5 7.5 0 1 0 15 0 a7.5 7.5 0 1 0 -15 0zM386.76 217.38 a7.5 7.5 0 1 0 15 0 a7.5 7.5 0 1 0 -15 0zM386.76 142.38 a7.5 7.5 0 1 0 15 0 a7.5 7.5 0 1 0 -15 0zM451.72 329.88 a7.5 7.5 0 1 0 15 0 a7.5 7.5 0 1 0 -15 0zM516.67 367.38 a7.5 7.5 0 1 0 15 0 a7.5 7.5 0 1 0 -15 0zM516.67 442.38 a7.5 7.5 0 1 0 15 0 a7.5 7.5 0 1 0 -15 0zM451.72 479.88 a7.5 7.5 0 1 0 15 0 a7.5 7.5 0 1 0 -15 0zM451.72 554.88 a7.5 7.5 0 1 0 15 0 a7.5 7.5 0 1 0 -15 0zM516.67 592.38 a7.5 7.5 0 1 0 15 0 a7.5 7.5 0 1 0 -15 0zM516.67 667.38 a7.5 7.5 0 1 0 15 0 a7.5 7.5 0 1 0 -15 0zM451.72 704.88 a7.5 7.5 0 1 0 15 0 a7.5 7.5 0 1 0 -15 0zM386.76 667.38 a7.5 7.5 0 1 0 15 0 a7.5 7.5 0 1 0 -15 0zM386.76 592.38 a7.5 7.5 0 1 0 15 0 a7.5 7.5 0 1 0 -15 0zM581.62 254.88 a7.5 7.5 0 1 0 15 0 a7.5 7.5 0 1 0 -15 0zM581.62 329.88 a7.5 7.5 0 1 0 15 0 a7.5 7.5 0 1 0 -15 0zM646.58 367.38 a7.5 7.5 0 1 0 15 0 a7.5 7.5 0 1 0 -15 0zM646.58 442.38 a7.5 7.5 0 1 0 15 0 a7.5 7.5 0 1 0 -15 0zM581.62 479.88 a7.5 7.5 0 1 0 15 0 a7.5 7.5 0 1 0 -15 0zM581.62 554.88 a7.5 7.5 0 1 0 15 0 a7.5 7.5 0 1 0 -15 0zM646.58 592.38 a7.5 7.5 0 1 0 15 0 a7.5 7.5 0 1 0 -15 0zM646.58 667.38 a7.5 7.5 0 1 0 15 0 a7.5 7.5 0 1 0 -15 0zM581.62 704.88 a7.5 7.5 0 1 0 15 0 a7.5 7.5 0 1 0 -15 0zM646.58 -7.62 a7.5 7.5 0 1 0 15 0 a7.5 7.5 0 1 0 -15 0zM711.53 29.88 a7.5 7.5 0 1 0 15 0 a7.5 7.5 0 1 0 -15 0zM711.53 104.88 a7.5 7.5 0 1 0 15 0 a7.5 7.5 0 1 0 -15 0zM646.58 142.38 a7.5 7.5 0 1 0 15 0 a7.5 7.5 0 1 0 -15 0zM581.62 104.88 a7.5 7.5 0 1 0 15 0 a7.5 7.5 0 1 0 -15 0zM581.62 29.88 a7.5 7.5 0 1 0 15 0 a7.5 7.5 0 1 0 -15 0zM776.49 142.38 a7.5 7.5 0 1 0 15 0 a7.5 7.5 0 1 0 -15 0zM776.49 217.38 a7.5 7.5 0 1 0 15 0 a7.5 7.5 0 1 0 -15 0zM711.53 254.88 a7.5 7.5 0 1 0 15 0 a7.5 7.5 0 1 0 -15 0zM646.58 217.38 a7.5 7.5 0 1 0 15 0 a7.5 7.5 0 1 0 -15 0zM711.53 554.88 a7.5 7.5 0 1 0 15 0 a7.5 7.5 0 1 0 -15 0zM776.49 592.38 a7.5 7.5 0 1 0 15 0 a7.5 7.5 0 1 0 -15 0zM776.49 667.38 a7.5 7.5 0 1 0 15 0 a7.5 7.5 0 1 0 -15 0zM711.53 704.88 a7.5 7.5 0 1 0 15 0 a7.5 7.5 0 1 0 -15 0zM776.48 -7.62 a7.5 7.5 0 1 0 15 0 a7.5 7.5 0 1 0 -15 0zM841.44 29.88 a7.5 7.5 0 1 0 15 0 a7.5 7.5 0 1 0 -15 0zM841.44 104.88 a7.5 7.5 0 1 0 15 0 a7.5 7.5 0 1 0 -15 0zM776.48 142.38 a7.5 7.5 0 1 0 15 0 a7.5 7.5 0 1 0 -15 0zM906.39 142.38 a7.5 7.5 0 1 0 15 0 a7.5 7.5 0 1 0 -15 0zM906.39 217.38 a7.5 7.5 0 1 0 15 0 a7.5 7.5 0 1 0 -15 0zM841.44 254.88 a7.5 7.5 0 1 0 15 0 a7.5 7.5 0 1 0 -15 0zM776.48 217.38 a7.5 7.5 0 1 0 15 0 a7.5 7.5 0 1 0 -15 0zM841.44 329.88 a7.5 7.5 0 1 0 15 0 a7.5 7.5 0 1 0 -15 0zM906.39 367.38 a7.5 7.5 0 1 0 15 0 a7.5 7.5 0 1 0 -15 0zM906.39 442.38 a7.5 7.5 0 1 0 15 0 a7.5 7.5 0 1 0 -15 0zM841.44 479.88 a7.5 7.5 0 1 0 15 0 a7.5 7.5 0 1 0 -15 0zM776.48 442.38 a7.5 7.5 0 1 0 15 0 a7.5 7.5 0 1 0 -15 0zM776.48 367.38 a7.5 7.5 0 1 0 15 0 a7.5 7.5 0 1 0 -15 0zM841.44 554.88 a7.5 7.5 0 1 0 15 0 a7.5 7.5 0 1 0 -15 0zM776.48 592.38 a7.5 7.5 0 1 0 15 0 a7.5 7.5 0 1 0 -15 0zM711.53 479.88 a7.5 7.5 0 1 0 15 0 a7.5 7.5 0 1 0 -15 0zM906.39 592.38 a7.5 7.5 0 1 0 15 0 a7.5 7.5 0 1 0 -15 0zM906.39 667.38 a7.5 7.5 0 1 0 15 0 a7.5 7.5 0 1 0 -15 0zM841.44 704.88 a7.5 7.5 0 1 0 15 0 a7.5 7.5 0 1 0 -15 0zM776.48 667.38 a7.5 7.5 0 1 0 15 0 a7.5 7.5 0 1 0 -15 0zM971.35 104.88 a7.5 7.5 0 1 0 15 0 a7.5 7.5 0 1 0 -15 0zM1036.3 142.38 a7.5 7.5 0 1 0 15 0 a7.5 7.5 0 1 0 -15 0zM1036.3 217.38 a7.5 7.5 0 1 0 15 0 a7.5 7.5 0 1 0 -15 0zM971.35 254.88 a7.5 7.5 0 1 0 15 0 a7.5 7.5 0 1 0 -15 0zM971.35 329.88 a7.5 7.5 0 1 0 15 0 a7.5 7.5 0 1 0 -15 0zM1036.3 367.38 a7.5 7.5 0 1 0 15 0 a7.5 7.5 0 1 0 -15 0zM1036.3 442.38 a7.5 7.5 0 1 0 15 0 a7.5 7.5 0 1 0 -15 0zM971.35 479.88 a7.5 7.5 0 1 0 15 0 a7.5 7.5 0 1 0 -15 0zM971.35 554.88 a7.5 7.5 0 1 0 15 0 a7.5 7.5 0 1 0 -15 0zM1036.3 592.38 a7.5 7.5 0 1 0 15 0 a7.5 7.5 0 1 0 -15 0zM1036.3 667.38 a7.5 7.5 0 1 0 15 0 a7.5 7.5 0 1 0 -15 0zM971.35 704.88 a7.5 7.5 0 1 0 15 0 a7.5 7.5 0 1 0 -15 0zM1101.25 554.88 a7.5 7.5 0 1 0 15 0 a7.5 7.5 0 1 0 -15 0zM1166.21 592.38 a7.5 7.5 0 1 0 15 0 a7.5 7.5 0 1 0 -15 0zM1166.21 667.38 a7.5 7.5 0 1 0 15 0 a7.5 7.5 0 1 0 -15 0zM1101.25 704.88 a7.5 7.5 0 1 0 15 0 a7.5 7.5 0 1 0 -15 0zM1166.21 -7.62 a7.5 7.5 0 1 0 15 0 a7.5 7.5 0 1 0 -15 0zM1231.16 29.88 a7.5 7.5 0 1 0 15 0 a7.5 7.5 0 1 0 -15 0zM1231.16 104.88 a7.5 7.5 0 1 0 15 0 a7.5 7.5 0 1 0 -15 0zM1166.21 142.38 a7.5 7.5 0 1 0 15 0 a7.5 7.5 0 1 0 -15 0zM1101.25 104.88 a7.5 7.5 0 1 0 15 0 a7.5 7.5 0 1 0 -15 0zM1101.25 29.88 a7.5 7.5 0 1 0 15 0 a7.5 7.5 0 1 0 -15 0zM1166.21 217.38 a7.5 7.5 0 1 0 15 0 a7.5 7.5 0 1 0 -15 0zM1231.16 254.88 a7.5 7.5 0 1 0 15 0 a7.5 7.5 0 1 0 -15 0zM1231.16 329.88 a7.5 7.5 0 1 0 15 0 a7.5 7.5 0 1 0 -15 0zM1166.21 367.38 a7.5 7.5 0 1 0 15 0 a7.5 7.5 0 1 0 -15 0zM1101.25 329.88 a7.5 7.5 0 1 0 15 0 a7.5 7.5 0 1 0 -15 0zM1101.25 254.88 a7.5 7.5 0 1 0 15 0 a7.5 7.5 0 1 0 -15 0zM1296.11 367.38 a7.5 7.5 0 1 0 15 0 a7.5 7.5 0 1 0 -15 0zM1296.11 442.38 a7.5 7.5 0 1 0 15 0 a7.5 7.5 0 1 0 -15 0zM1231.16 479.88 a7.5 7.5 0 1 0 15 0 a7.5 7.5 0 1 0 -15 0zM1166.21 442.38 a7.5 7.5 0 1 0 15 0 a7.5 7.5 0 1 0 -15 0zM1231.16 554.88 a7.5 7.5 0 1 0 15 0 a7.5 7.5 0 1 0 -15 0zM1101.25 479.88 a7.5 7.5 0 1 0 15 0 a7.5 7.5 0 1 0 -15 0zM1361.07 104.88 a7.5 7.5 0 1 0 15 0 a7.5 7.5 0 1 0 -15 0zM1426.02 142.38 a7.5 7.5 0 1 0 15 0 a7.5 7.5 0 1 0 -15 0zM1426.02 217.38 a7.5 7.5 0 1 0 15 0 a7.5 7.5 0 1 0 -15 0zM1361.07 254.88 a7.5 7.5 0 1 0 15 0 a7.5 7.5 0 1 0 -15 0zM1296.12 217.38 a7.5 7.5 0 1 0 15 0 a7.5 7.5 0 1 0 -15 0zM1296.12 142.38 a7.5 7.5 0 1 0 15 0 a7.5 7.5 0 1 0 -15 0zM1361.07 329.88 a7.5 7.5 0 1 0 15 0 a7.5 7.5 0 1 0 -15 0zM1296.12 367.38 a7.5 7.5 0 1 0 15 0 a7.5 7.5 0 1 0 -15 0zM1426.02 367.38 a7.5 7.5 0 1 0 15 0 a7.5 7.5 0 1 0 -15 0zM1426.02 442.38 a7.5 7.5 0 1 0 15 0 a7.5 7.5 0 1 0 -15 0zM1361.07 479.88 a7.5 7.5 0 1 0 15 0 a7.5 7.5 0 1 0 -15 0zM1296.12 442.38 a7.5 7.5 0 1 0 15 0 a7.5 7.5 0 1 0 -15 0zM1361.07 554.88 a7.5 7.5 0 1 0 15 0 a7.5 7.5 0 1 0 -15 0zM1296.12 592.38 a7.5 7.5 0 1 0 15 0 a7.5 7.5 0 1 0 -15 0zM1490.98 104.88 a7.5 7.5 0 1 0 15 0 a7.5 7.5 0 1 0 -15 0zM1555.93 142.38 a7.5 7.5 0 1 0 15 0 a7.5 7.5 0 1 0 -15 0zM1555.93 217.38 a7.5 7.5 0 1 0 15 0 a7.5 7.5 0 1 0 -15 0zM1490.98 254.88 a7.5 7.5 0 1 0 15 0 a7.5 7.5 0 1 0 -15 0zM1490.98 479.88 a7.5 7.5 0 1 0 15 0 a7.5 7.5 0 1 0 -15 0zM1490.98 554.88 a7.5 7.5 0 1 0 15 0 a7.5 7.5 0 1 0 -15 0zM1426.02 592.38 a7.5 7.5 0 1 0 15 0 a7.5 7.5 0 1 0 -15 0z" fill="#03305d"></path><path d="M185.73 438.53L229.03 463.53L229.03 513.53L185.73 538.53L142.43 513.53L142.43 463.53zM229.03 513.53L272.33 538.53L272.33 588.53L229.03 613.53L185.73 588.53L185.73 538.53zM402.24 363.53L445.55 388.53L445.55 438.53L402.24 463.53L358.94 438.53L358.94 388.53zM575.45 63.53L618.75 88.53L618.75 138.53L575.45 163.53L532.15 138.53L532.15 88.53zM835.27 63.53L878.57 88.53L878.57 138.53L835.27 163.53L791.97 138.53L791.97 88.53zM835.27 213.53L878.57 238.53L878.57 288.53L835.27 313.53L791.97 288.53L791.97 238.53zM878.57 138.53L921.87 163.53L921.87 213.53L878.57 238.53L835.27 213.53L835.27 163.53zM921.87 513.53L965.18 538.53L965.18 588.53L921.87 613.53L878.57 588.53L878.57 538.53zM1008.48 363.53L1051.78 388.53L1051.78 438.53L1008.48 463.53L965.18 438.53L965.18 388.53zM965.18 438.53L1008.48 463.53L1008.48 513.53L965.18 538.53L921.87 513.53L921.87 463.53zM1095.08 363.53L1138.38 388.53L1138.38 438.53L1095.08 463.53L1051.78 438.53L1051.78 388.53zM1138.38 -11.47L1181.69 13.53L1181.69 63.53L1138.38 88.53L1095.08 63.53L1095.08 13.53zM1181.69 63.53L1224.99 88.53L1224.99 138.53L1181.69 163.53L1138.38 138.53L1138.38 88.53zM1138.38 288.53L1181.69 313.53L1181.69 363.53L1138.38 388.53L1095.08 363.53L1095.08 313.53zM1268.29 63.53L1311.6 88.53L1311.6 138.53L1268.29 163.53L1224.99 138.53L1224.99 88.53zM1268.29 213.53L1311.6 238.53L1311.6 288.53L1268.29 313.53L1224.99 288.53L1224.99 238.53zM1311.6 288.53L1354.9 313.53L1354.9 363.53L1311.6 388.53L1268.29 363.53L1268.29 313.53zM1398.2 -11.47L1441.5 13.53L1441.5 63.53L1398.2 88.53L1354.9 63.53L1354.9 13.53zM1441.5 63.53L1484.81 88.53L1484.81 138.53L1441.5 163.53L1398.2 138.53L1398.2 88.53zM1398.2 288.53L1441.5 313.53L1441.5 363.53L1398.2 388.53L1354.9 363.53L1354.9 313.53zM1441.5 363.53L1484.81 388.53L1484.81 438.53L1441.5 463.53L1398.2 438.53L1398.2 388.53z" stroke="rgba(6, 80, 156, 0.93)" stroke-width="2"></path></g><defs><mask id="SvgjsMask1098"><rect width="1440" height="560" fill="#ffffff"></rect></mask></defs></svg>